<?xml version="1.0" standalone="no"?><!DOCTYPE svg PUBLIC "-//W3C//DTD SVG 1.1//EN" "http://www.w3.org/Graphics/SVG/1.1/DTD/svg11.dtd"><svg width="100%" height="100%" viewBox="0 0 134 278" version="1.1" xmlns="http://www.w3.org/2000/svg" xmlns:xlink="http://www.w3.org/1999/xlink" xml:space="preserve" style="fill-rule:evenodd;clip-rule:evenodd;stroke-miterlimit:1.41421;"><g id="iphone"><path id="bezel" d="M131.731,259.615c0,8.833 -7.191,15.992 -16.062,15.992l-97.875,0c-8.871,0 -16.062,-7.159 -16.062,-15.992l0,-241.891c0,-8.833 7.191,-15.992 16.062,-15.992l97.875,0c8.871,0 16.062,7.159 16.062,15.992l0,241.891Z" style="fill:#fdfdfd;stroke-width:2px;stroke:#7e89a3;"/><rect id="screen" x="10.731" y="37.651" width="111.93" height="199.084" style="fill:#fff;stroke-width:1px;stroke:#7e89a3;"/><path id="speaker" d="M78.731,27.397c0,0.635 -0.439,1.147 -0.98,1.147l-20.102,0c-0.542,0 -0.98,-0.513 -0.98,-1.147l0,-2.58c0,-0.635 0.439,-1.147 0.98,-1.147l20.102,0c0.541,0 0.98,0.513 0.98,1.147l0,2.58Z" style="fill:none;stroke-width:1px;stroke:#7e89a3;"/><circle id="camera" cx="67.731" cy="13.651" r="3" style="fill:none;stroke-width:1px;stroke:#7e89a3;"/><ellipse id="lock" cx="66.771" cy="255.652" rx="10.04" ry="10.001" style="fill:none;stroke-width:1px;stroke:#7e89a3;"/></g></svg>