<?xml version="1.0" standalone="no"?><!DOCTYPE svg PUBLIC "-//W3C//DTD SVG 1.1//EN" "http://www.w3.org/Graphics/SVG/1.1/DTD/svg11.dtd"><svg width="100%" height="100%" viewBox="0 0 278 134" version="1.1" xmlns="http://www.w3.org/2000/svg" xmlns:xlink="http://www.w3.org/1999/xlink" xml:space="preserve" style="fill-rule:evenodd;clip-rule:evenodd;stroke-miterlimit:1.41421;"><g id="iphone"><path id="bezel" d="M259.615,1.732c8.833,0 15.992,7.191 15.992,16.062l0,97.875c0,8.871 -7.159,16.062 -15.992,16.062l-241.891,0c-8.833,0 -15.992,-7.191 -15.992,-16.062l0,-97.875c0,-8.871 7.159,-16.062 15.992,-16.062l241.891,0Z" style="fill:#fdfdfd;stroke-width:2px;stroke:#7e89a3;"/><path id="screen" d="M37.651,10.802l0,111.93l199.084,0l0,-111.93l-199.084,0Z" style="fill:#fff;stroke-width:1px;stroke:#7e89a3;"/><path id="speaker" d="M27.397,54.732c0.635,0 1.147,0.439 1.147,0.98l0,20.102c0,0.542 -0.513,0.98 -1.147,0.98l-2.58,0c-0.635,0 -1.147,-0.439 -1.147,-0.98l0,-20.102c0,-0.541 0.513,-0.98 1.147,-0.98l2.58,0Z" style="fill:none;stroke-width:1px;stroke:#7e89a3;"/><path id="camera" d="M10.651,65.732c0,-1.656 1.344,-3 3,-3c1.656,0 3,1.344 3,3c0,1.656 -1.344,3 -3,3c-1.656,0 -3,-1.344 -3,-3Z" style="fill:none;stroke-width:1px;stroke:#7e89a3;"/><path id="lock" d="M245.651,66.692c0,-5.541 4.481,-10.04 10.001,-10.04c5.52,0 10.001,4.499 10.001,10.04c0,5.541 -4.481,10.04 -10.001,10.04c-5.52,0 -10.001,-4.499 -10.001,-10.04Z" style="fill:none;stroke-width:1px;stroke:#7e89a3;"/></g></svg>