<?xml version="1.0" standalone="no"?><!DOCTYPE svg PUBLIC "-//W3C//DTD SVG 1.1//EN" "http://www.w3.org/Graphics/SVG/1.1/DTD/svg11.dtd"><svg width="100%" height="100%" viewBox="0 0 973 231" version="1.1" xmlns="http://www.w3.org/2000/svg" xmlns:xlink="http://www.w3.org/1999/xlink" xml:space="preserve" style="fill-rule:evenodd;clip-rule:evenodd;stroke-linejoin:round;stroke-miterlimit:1.41421;"><g><g><path d="M62.295,51.515l64.951,0c34.241,0 46.243,25.063 46.243,43.066c0,30.534 -20.474,44.831 -49.419,44.831l-22.945,0l0,38.123l-38.83,0l0,-126.02ZM101.125,109.407l15.002,0c10.06,0 20.65,-0.706 20.65,-13.414c0,-11.472 -8.825,-12.178 -18.356,-12.178l-17.297,0l0,25.592l0.001,0Z" style="fill:#3a3a3a;fill-rule:nonzero;"/><path d="M265.621,157.062c0,6.884 0.353,14.649 4.236,20.474l-35.653,0c-0.882,-2.471 -1.412,-6.178 -1.235,-8.648l-0.353,0c-7.413,8.473 -18.179,10.943 -29.475,10.943c-17.65,0 -32.299,-8.473 -32.299,-27.711c0,-28.945 33.888,-27.887 51.714,-31.24c4.766,-0.883 9.531,-2.295 9.531,-8.119c0,-6.177 -5.824,-8.472 -11.472,-8.472c-10.767,0 -12.884,5.472 -13.061,9.354l-32.476,0c1.059,-25.769 25.416,-30.004 47.125,-30.004c43.771,0 43.418,18.179 43.418,35.829l0,37.594ZM232.086,136.411c-4.236,2.118 -9.001,3.354 -13.767,4.412c-7.766,1.765 -11.826,3.706 -11.826,9.884c0,4.236 4.589,8.473 10.943,8.473c7.942,0 14.12,-4.766 14.649,-14.297l0,-8.472l0.001,0Z" style="fill:#3a3a3a;fill-rule:nonzero;"/><path d="M270.916,85.933l33.711,0l0,11.649l0.353,0c6.53,-9.178 15.885,-13.943 29.828,-13.943c16.415,0 31.417,10.06 31.417,31.063l0,62.833l-34.946,0l0,-48.008c0,-10.59 -1.236,-18.002 -11.473,-18.002c-6.001,0 -13.943,3 -13.943,17.65l0,48.36l-34.947,0l0,-91.602Z" style="fill:#3a3a3a;fill-rule:nonzero;"/><path d="M464.888,157.062c0,6.884 0.353,14.649 4.236,20.474l-35.653,0c-0.882,-2.471 -1.412,-6.178 -1.235,-8.648l-0.353,0c-7.413,8.473 -18.179,10.943 -29.475,10.943c-17.65,0 -32.299,-8.473 -32.299,-27.711c0,-28.945 33.888,-27.887 51.714,-31.24c4.766,-0.883 9.531,-2.295 9.531,-8.119c0,-6.177 -5.824,-8.472 -11.472,-8.472c-10.767,0 -12.884,5.472 -13.061,9.354l-32.476,0c1.059,-25.769 25.416,-30.004 47.125,-30.004c43.771,0 43.418,18.179 43.418,35.829l0,37.594ZM431.353,136.411c-4.236,2.118 -9.001,3.354 -13.767,4.412c-7.766,1.765 -11.826,3.706 -11.826,9.884c0,4.236 4.589,8.473 10.943,8.473c7.942,0 14.12,-4.766 14.649,-14.297l0,-8.472l0.001,0Z" style="fill:#3a3a3a;fill-rule:nonzero;"/><path d="M526.662,112.584c-0.178,-3 -1.766,-5.295 -4.061,-6.884c-2.117,-1.765 -4.941,-2.647 -7.766,-2.647c-4.941,0 -10.59,1.059 -10.59,7.06c0,2.647 2.118,3.883 4.06,4.766c5.825,2.471 19.062,3.176 30.711,7.059c11.649,3.707 21.886,10.59 21.886,25.593c0,25.416 -24.357,32.3 -46.596,32.3c-21.533,0 -45.184,-8.648 -45.713,-32.3l33.357,0c0.178,3.177 1.59,5.825 4.236,8.119c1.766,1.589 5.119,2.647 9.354,2.647c4.589,0 11.825,-1.766 11.825,-7.061c0,-5.295 -3,-6.883 -19.238,-9.707c-26.651,-4.589 -37.417,-13.061 -37.417,-28.769c0,-23.121 24.886,-29.122 43.242,-29.122c19.769,0 43.596,5.471 44.479,28.946l-31.769,0l0,0Z" style="fill:#3a3a3a;fill-rule:nonzero;"/><path d="M611.38,179.83c-34.417,0 -49.948,-22.769 -49.948,-48.185c0,-25.416 15.531,-48.007 49.948,-48.007c34.418,0 49.949,22.592 49.949,48.007c0,25.417 -15.531,48.185 -49.949,48.185ZM611.38,109.054c-13.237,0 -15.002,12.884 -15.002,22.592c0,9.708 1.765,22.769 15.002,22.769c13.237,0 15.003,-13.061 15.003,-22.769c0,-9.708 -1.766,-22.592 -15.003,-22.592Z" style="fill:#3a3a3a;fill-rule:nonzero;"/><path d="M665.035,85.933l33.711,0l0,11.649l0.353,0c6.531,-9.178 15.885,-13.943 29.829,-13.943c16.414,0 31.416,10.06 31.416,31.063l0,62.833l-34.946,0l0,-48.008c0,-10.59 -1.235,-18.002 -11.473,-18.002c-6.001,0 -13.943,3 -13.943,17.65l0,48.36l-34.946,0l0,-91.602l-0.001,0Z" style="fill:#3a3a3a;fill-rule:nonzero;"/><path d="M801.821,76.049l-34.946,0l0,-24.534l34.946,0l0,24.534ZM766.875,85.933l34.946,0l0,91.603l-34.946,0l0,-91.603Z" style="fill:#3a3a3a;fill-rule:nonzero;"/><path d="M867.653,120.703c-0.354,-3.707 -1.589,-6.708 -3.883,-8.649c-2.118,-1.941 -5.119,-3 -8.825,-3c-13.414,0 -15.355,11.649 -15.355,22.769c0,11.12 1.941,22.592 15.355,22.592c7.589,0 12.884,-6.178 13.59,-13.414l33.358,0c-3.354,24.887 -22.944,38.83 -47.654,38.83c-27.534,0 -49.597,-19.062 -49.597,-48.008c0,-28.946 22.062,-48.184 49.597,-48.184c24.004,0 44.478,11.825 46.596,37.065l-33.182,0l0,-0.001Z" style="fill:#3a3a3a;fill-rule:nonzero;"/></g></g></svg>