<?xml version="1.0" standalone="no"?><!DOCTYPE svg PUBLIC "-//W3C//DTD SVG 1.1//EN" "http://www.w3.org/Graphics/SVG/1.1/DTD/svg11.dtd"><svg width="100%" height="100%" viewBox="0 0 219 321" version="1.1" xmlns="http://www.w3.org/2000/svg" xmlns:xlink="http://www.w3.org/1999/xlink" xml:space="preserve" style="fill-rule:evenodd;clip-rule:evenodd;stroke-miterlimit:1.41421;"><g id="IPAD"><path id="bezel" d="M204.635,318.649l-190.889,0c-6.635,0 -12.014,-5.377 -12.014,-12.01l0,-292.897c0,-6.633 5.378,-12.01 12.014,-12.01l190.889,0c6.636,0 12.014,5.377 12.014,12.01l0,292.897c0,6.633 -5.378,12.01 -12.014,12.01Z" style="fill:#fdfdfd;stroke-width:2px;stroke:#7e89a3;"/><path id="bezel-2" d="M204.635,318.649l-190.889,0c-6.635,0 -12.014,-5.377 -12.014,-12.01l0,-292.897c0,-6.633 5.378,-12.01 12.014,-12.01l190.889,0c6.636,0 12.014,5.377 12.014,12.01l0,292.897c0,6.633 -5.378,12.01 -12.014,12.01Z" style="fill:#fdfdfd;stroke-width:2px;stroke:#7e89a3;"/><rect id="screen" x="18.649" y="33.649" width="181.999" height="252.917" style="fill:#fff;stroke-width:1px;stroke:#7e89a3;"/><circle id="lock" cx="109.67" cy="301.67" r="8.021" style="fill:none;stroke-width:1px;stroke:#7e89a3;"/><circle id="camera" cx="108.639" cy="18.639" r="2.99" style="fill:none;stroke-width:1px;stroke:#7e89a3;"/></g></svg>