<?xml version="1.0" standalone="no"?><!DOCTYPE svg PUBLIC "-//W3C//DTD SVG 1.1//EN" "http://www.w3.org/Graphics/SVG/1.1/DTD/svg11.dtd"><svg width="100%" height="100%" viewBox="0 0 696 386" version="1.1" xmlns="http://www.w3.org/2000/svg" xmlns:xlink="http://www.w3.org/1999/xlink" xml:space="preserve" style="fill-rule:evenodd;clip-rule:evenodd;stroke-miterlimit:1.41421;"><g id="Laptop"><path id="bezel" d="M595.732,1.732l-496,0c-13.496,0 -25,11.074 -25,24.79l0,326.238l546,0l0,-326.238c0,-13.717 -11.462,-24.79 -25,-24.79Z" style="fill:#fefefe;stroke-width:2px;stroke:#8492a5;"/><circle id="webcam" cx="348.732" cy="20.732" r="4" style="fill:none;stroke-width:2px;stroke:#8492a5;"/><g id="bottom"><path id="Shape" d="M642.544,383.742l-589.524,0c-30.647,0 -51.288,-10.516 -51.288,-14.988l0,-13.594c0,-1.344 1.335,-2.428 2.995,-2.428l686.109,0c1.662,0 2.999,1.084 2.999,2.428l0,14.129c-0.007,3.535 -15.991,14.453 -51.291,14.453Z" style="fill:#fdfdfd;stroke-width:2px;stroke:#8492a5;"/><path id="Line" d="M2.232,367.232l689.743,0" style="fill:none;stroke-width:1px;stroke-linecap:square;stroke:#8492a5;"/></g><rect id="screen" x="96.732" y="40.732" width="501.074" height="292.009" style="fill:#fff;stroke-width:1px;stroke:#8492a5;"/><path id="touchpad" d="M422.732,353.732l0,3.087c0,2.201 -4.333,2.866 -7.613,2.866l-134.572,0c-3.451,0 -7.815,-0.664 -7.815,-2.866l0,-3.087" style="fill:#fff;stroke-width:1px;stroke:#8492a5;"/></g></svg>