<?xml version="1.0" standalone="no"?><!DOCTYPE svg PUBLIC "-//W3C//DTD SVG 1.1//EN" "http://www.w3.org/Graphics/SVG/1.1/DTD/svg11.dtd"><svg width="100%" height="100%" viewBox="0 0 321 219" version="1.1" xmlns="http://www.w3.org/2000/svg" xmlns:xlink="http://www.w3.org/1999/xlink" xml:space="preserve" style="fill-rule:evenodd;clip-rule:evenodd;stroke-miterlimit:1.41421;"><g id="IPAD"><path id="bezel" d="M318.649,13.746l0,190.889c0,6.635 -5.377,12.014 -12.01,12.014l-292.897,0c-6.633,0 -12.01,-5.378 -12.01,-12.014l0,-190.889c0,-6.636 5.377,-12.014 12.01,-12.014l292.897,0c6.633,0 12.01,5.378 12.01,12.014Z" style="fill:#fdfdfd;stroke-width:2px;stroke:#7e89a3;"/><path id="bezel-2" d="M318.649,13.746l0,190.889c0,6.635 -5.377,12.014 -12.01,12.014l-292.897,0c-6.633,0 -12.01,-5.378 -12.01,-12.014l0,-190.889c0,-6.636 5.377,-12.014 12.01,-12.014l292.897,0c6.633,0 12.01,5.378 12.01,12.014Z" style="fill:#fdfdfd;stroke-width:2px;stroke:#7e89a3;"/><path id="screen" d="M33.649,17.733l0,181.999l252.917,0l0,-181.999l-252.917,0Z" style="fill:#fff;stroke-width:1px;stroke:#7e89a3;"/><path id="lock" d="M293.649,108.711c0,-4.427 3.594,-8.021 8.021,-8.021c4.427,0 8.021,3.594 8.021,8.021c0,4.427 -3.594,8.021 -8.021,8.021c-4.427,0 -8.021,-3.594 -8.021,-8.021Z" style="fill:none;stroke-width:1px;stroke:#7e89a3;"/><path id="camera" d="M15.649,109.742c0,-1.65 1.34,-2.99 2.99,-2.99c1.65,0 2.99,1.34 2.99,2.99c0,1.65 -1.34,2.99 -2.99,2.99c-1.65,0 -2.99,-1.34 -2.99,-2.99Z" style="fill:none;stroke-width:1px;stroke:#7e89a3;"/></g></svg>