<?xml version="1.0" standalone="no"?><!DOCTYPE svg PUBLIC "-//W3C//DTD SVG 1.1//EN" "http://www.w3.org/Graphics/SVG/1.1/DTD/svg11.dtd"><svg width="100%" height="100%" viewBox="0 0 474 62" version="1.1" xmlns="http://www.w3.org/2000/svg" xmlns:xlink="http://www.w3.org/1999/xlink" xml:space="preserve" style="fill-rule:evenodd;clip-rule:evenodd;stroke-linejoin:round;stroke-miterlimit:1.41421;"><path id="path2581" d="M379.589,59.714l0,-57.975l23.55,0l0,25.725c1.05,-0.975 2.55,-2.025 4.2,-3.3l28.65,-22.275l16.65,0l-32.625,26.25l37.2,31.575l-25.8,0l-26.925,-22.275c-0.525,-0.375 -0.975,-0.675 -1.35,-1.05l0,23.325l-23.55,0ZM25.514,10.139l-23.775,0l0,-8.4l71.175,0l0,8.4l-23.475,0l0,49.575l-23.925,0l0,-49.575ZM104.639,59.714l-23.475,0l0,-57.975l55.95,0c13.05,0 16.95,8.925 16.95,15.825l0,12.825c0,6.675 -5.85,13.425 -17.175,13.425l-32.25,0l0,15.9ZM104.639,35.414l19.275,0c0,0 6.45,-0.15 6.45,-5.55l0,-13.875c0,0 0,-5.7 -6.45,-5.7l-19.275,-0.15l0,25.275ZM161.864,34.739l0,-8.4l24.225,0l0,8.4l-24.225,0ZM208.139,59.714c-10.65,0 -15.675,-6.975 -15.675,-15.75l0,-42.225l23.55,0l0,44.1c0,3.75 3.225,5.55 6.6,5.55l36.15,0l0,8.325l-50.625,0ZM287.339,59.714l-23.55,0l0,-57.975l23.55,0l0,57.975ZM305.714,59.714l-9.75,0l0,-57.975c0,0.15 15.45,0 15.45,0c3.9,0 8.475,1.95 10.95,4.35l38.25,38.55l0,-42.9l9.9,0l0,57.975l-18.3,0c-4.275,0 -6.975,-1.875 -9.825,-4.575l-36.675,-36.225" style="fill:#3a3a3a;fill-rule:nonzero;"/><path id="path2585" d="M467.789,12.989l-1.2,0l-0.675,-2.175c-0.15,-0.375 -0.45,-0.675 -0.675,-0.975c-0.45,-0.225 -0.825,-0.375 -1.275,-0.375l-2.025,0l0,3.525l-1.05,0l0,-8.25l3.675,0c0.675,0 1.2,0 1.575,0.15c0.45,0.15 0.675,0.375 0.975,0.825c0.3,0.375 0.375,0.75 0.375,1.35c0,0.525 -0.075,1.05 -0.525,1.425c-0.225,0.3 -0.675,0.6 -1.35,0.675c0.675,0.3 1.125,0.675 1.35,1.5l0.825,2.325ZM461.939,8.489l2.475,0c0.675,0 1.2,-0.075 1.5,-0.375c0.375,-0.15 0.525,-0.525 0.525,-1.05c0,-0.975 -0.675,-1.5 -1.8,-1.5l-2.7,0" style="fill:#3a3a3a;fill-rule:nonzero;"/><path id="path2589" d="M463.889,1.739c-4.05,0 -7.35,3.375 -7.35,7.425c0,4.125 3.3,7.5 7.35,7.5c4.2,0 7.425,-3.375 7.425,-7.5c0,-4.05 -3.225,-7.425 -7.425,-7.425ZM463.889,15.389c-3.375,0 -6.15,-2.85 -6.15,-6.225c0,-3.375 2.775,-6.075 6.15,-6.075c3.375,0 6.225,2.7 6.225,6.075c0,3.375 -2.85,6.225 -6.225,6.225" style="fill:#3a3a3a;fill-rule:nonzero;"/></svg>