<?xml version="1.0" standalone="no"?><!DOCTYPE svg PUBLIC "-//W3C//DTD SVG 1.1//EN" "http://www.w3.org/Graphics/SVG/1.1/DTD/svg11.dtd"><svg width="100%" height="100%" viewBox="0 0 92 31" version="1.1" xmlns="http://www.w3.org/2000/svg" xmlns:xlink="http://www.w3.org/1999/xlink" xml:space="preserve" style="fill-rule:evenodd;clip-rule:evenodd;stroke-linejoin:round;stroke-miterlimit:1.41421;"><g><path d="M90.969,7.196c1.24,7.106 -18.105,16.412 -43.213,20.785c-25.105,4.373 -46.462,2.154 -47.7,-4.955c-1.237,-7.107 18.113,-16.41 43.218,-20.782c25.106,-4.375 46.459,-2.156 47.695,4.952Z" style="fill:#3a3a3a;fill-rule:nonzero;"/><g><path d="M67.34,17.745l-0.129,-7.389l2.33,0l0,9.313l-3.35,0l-2.325,-7.643l-0.05,0l0.129,7.643l-2.315,0l0,-9.313l3.495,0l2.163,7.389l0.052,0Z" style="fill:#fff;fill-rule:nonzero;"/><path d="M24.987,11.228l-1.289,8.539l-2.541,0l1.745,-9.411l4.186,0l1.737,9.411l-2.531,0l-1.254,-8.539l-0.053,0Z" style="fill:#fff;fill-rule:nonzero;"/><path d="M35.962,17.55l1.163,-7.194l3.838,0l0.204,9.411l-2.352,0l-0.062,-8.461l-0.049,0l-1.573,8.461l-2.388,0l-1.574,-8.461l-0.051,0l-0.059,8.461l-2.357,0l0.208,-9.411l3.84,0l1.162,7.194l0.05,0Z" style="fill:#fff;fill-rule:nonzero;"/><path d="M17.194,17.112c0.092,0.228 0.064,0.521 0.021,0.698c-0.079,0.313 -0.291,0.632 -0.917,0.632c-0.59,0 -0.948,-0.338 -0.948,-0.855l0,-0.911l-2.524,0l-0.002,0.729c0,2.098 1.652,2.731 3.422,2.731c1.702,0 3.104,-0.582 3.327,-2.15c0.114,-0.813 0.029,-1.345 -0.01,-1.546c-0.397,-1.97 -3.969,-2.558 -4.235,-3.66c-0.045,-0.189 -0.032,-0.389 -0.01,-0.496c0.065,-0.3 0.271,-0.631 0.86,-0.631c0.55,0 0.875,0.34 0.875,0.854c0,0.173 0,0.581 0,0.581l2.347,0l0,-0.661c0,-2.05 -1.84,-2.37 -3.173,-2.37c-1.674,0 -3.042,0.553 -3.292,2.085c-0.068,0.423 -0.078,0.8 0.021,1.272c0.411,1.923 3.754,2.48 4.238,3.698Z" style="fill:#fff;fill-rule:nonzero;"/><path d="M47.796,17.095c0.093,0.226 0.063,0.511 0.021,0.688c-0.077,0.312 -0.287,0.626 -0.909,0.626c-0.582,0 -0.937,-0.338 -0.937,-0.843l-0.002,-0.903l-2.498,0l-0.003,0.719c0,2.077 1.637,2.704 3.389,2.704c1.684,0 3.073,-0.574 3.292,-2.128c0.114,-0.807 0.033,-1.332 -0.008,-1.529c-0.395,-1.952 -3.931,-2.534 -4.194,-3.625c-0.045,-0.188 -0.032,-0.386 -0.009,-0.487c0.067,-0.302 0.269,-0.625 0.852,-0.625c0.545,0 0.863,0.332 0.863,0.842c0,0.171 0,0.575 0,0.575l2.329,0l0,-0.654c0,-2.028 -1.825,-2.346 -3.145,-2.346c-1.655,0 -3.012,0.546 -3.257,2.067c-0.068,0.417 -0.075,0.787 0.022,1.257c0.405,1.903 3.715,2.456 4.194,3.662Z" style="fill:#fff;fill-rule:nonzero;"/><path d="M55.701,18.359c0.653,0 0.857,-0.452 0.902,-0.683c0.019,-0.102 0.024,-0.238 0.022,-0.36l0,-6.964l2.38,0l0,6.751c0.005,0.173 -0.012,0.529 -0.02,0.618c-0.167,1.757 -1.556,2.327 -3.285,2.327c-1.731,0 -3.121,-0.57 -3.286,-2.327c-0.008,-0.089 -0.025,-0.445 -0.02,-0.618l0,-6.751l2.378,0l0,6.964c0,0.122 0.004,0.259 0.022,0.36c0.051,0.231 0.249,0.683 0.907,0.683Z" style="fill:#fff;fill-rule:nonzero;"/><path d="M75.333,18.26c0.682,0 0.92,-0.431 0.964,-0.682c0.017,-0.108 0.022,-0.239 0.021,-0.358l0,-1.366l-0.966,0l0,-1.374l3.337,0l0,2.526c-0.002,0.176 -0.006,0.306 -0.034,0.62c-0.157,1.712 -1.642,2.323 -3.31,2.323c-1.671,0 -3.154,-0.611 -3.313,-2.323c-0.027,-0.314 -0.031,-0.444 -0.034,-0.62l0.002,-3.963c0,-0.167 0.021,-0.463 0.039,-0.62c0.209,-1.759 1.635,-2.325 3.306,-2.325c1.669,0 3.13,0.563 3.303,2.325c0.031,0.3 0.021,0.62 0.021,0.62l0,0.314l-2.373,0l0,-0.527c0.002,0.001 -0.003,-0.224 -0.031,-0.358c-0.04,-0.208 -0.221,-0.686 -0.938,-0.686c-0.686,0 -0.887,0.452 -0.937,0.686c-0.029,0.124 -0.04,0.292 -0.04,0.444l0,4.304c-0.002,0.119 0.005,0.25 0.024,0.358c0.041,0.252 0.278,0.682 0.959,0.682Z" style="fill:#fff;fill-rule:nonzero;"/></g></g></svg>