<?xml version="1.0" standalone="no"?><!DOCTYPE svg PUBLIC "-//W3C//DTD SVG 1.1//EN" "http://www.w3.org/Graphics/SVG/1.1/DTD/svg11.dtd"><svg width="100%" height="100%" viewBox="0 0 851 245" version="1.1" xmlns="http://www.w3.org/2000/svg" xmlns:xlink="http://www.w3.org/1999/xlink" xml:space="preserve" style="fill-rule:evenodd;clip-rule:evenodd;stroke-linejoin:round;stroke-miterlimit:1.41421;"><g id="g146158"><path id="path672" d="M773.783,39.197c-4.288,0 -7.503,1.394 -10.719,4.288c-2.144,3.001 -4.289,6.86 -4.289,10.934c0,3.966 2.145,7.717 4.289,10.612c3.216,3.001 6.431,4.609 10.719,4.609c4.287,0 8.574,-1.608 10.72,-4.609c3.216,-2.787 4.287,-6.432 4.287,-10.612c0,-4.074 -1.071,-7.933 -4.287,-10.72c-2.146,-3.001 -6.433,-4.502 -10.72,-4.502ZM787.719,54.526c0,3.537 -2.144,6.753 -4.288,9.111c-3.217,2.573 -6.433,3.966 -9.648,3.966c-3.216,0 -6.432,-1.393 -9.647,-3.966c-2.144,-2.573 -3.216,-5.788 -3.216,-9.218c0,-3.538 1.072,-6.861 4.288,-9.541c2.143,-2.465 5.359,-3.752 8.575,-3.752c4.287,0 7.503,1.394 9.648,3.967c2.144,2.465 4.288,5.681 4.288,9.433ZM774.854,45.414l-6.431,0l0,17.258l3.216,0l0,-7.289l3.215,0l3.216,7.289l3.216,0l-3.216,-7.825c2.144,-0.536 3.216,-2.251 3.216,-4.609c0,-3.216 -2.144,-4.824 -6.432,-4.824ZM773.783,47.558c3.215,0 4.287,0.858 4.287,3.001c0,2.037 -1.072,2.68 -4.287,2.68l-2.144,0l0,-5.681l2.144,0" style="fill:#3a3a3a;"/><path id="path676" d="M283.907,36.088c25.727,0 52.525,0 78.251,0c2.146,0 9.649,0.429 10.721,0.643c2.143,1.072 -3.216,12.328 -7.503,15.436c-1.072,1.072 -3.218,1.072 -4.29,1.287c-5.359,0.643 -10.718,2.572 -11.79,7.396c-2.144,7.397 -1.072,18.009 -1.072,26.477c0,22.832 0,45.664 0,68.497c0,6.646 -2.144,24.226 1.072,29.049c2.144,5.467 8.575,5.467 15.008,5.467c1.072,-0.214 3.215,-0.429 4.287,-0.643c2.144,-0.751 3.216,-1.608 5.359,-2.465c4.288,-2.466 8.575,-6.432 11.791,-11.149c3.217,-4.502 5.361,-9.647 7.505,-14.9c1.071,-2.894 1.071,-6.967 3.215,-9.433c2.144,-3.108 13.936,-5.467 16.08,-5.359c1.072,-0.108 3.215,0.107 4.287,0.107c0,18.33 0,36.767 0,55.205c0,1.179 -1.072,6.431 -1.072,6.646c0,0 -75.035,0 -112.553,0c-9.649,0 -20.367,0 -30.014,0c-1.072,0 -3.217,0.428 -3.217,-0.644c0,-4.716 2.145,-13.506 6.432,-16.079c2.144,-1.286 4.288,-1.286 7.503,-1.286c1.072,-0.857 3.216,-1.822 5.36,-2.787c4.287,-2.358 6.433,-6.432 7.504,-10.398c3.216,-8.254 2.144,-19.616 2.144,-29.371c0,-19.938 0,-39.876 0,-59.814c0,-6.324 1.072,-22.511 -1.072,-27.227c-3.215,-7.825 -19.295,-6.217 -20.367,-9.648c-1.072,-4.18 4.288,-11.791 6.431,-15.007" style="fill:#3a3a3a;fill-rule:nonzero;"/><path id="path686" d="M696.604,36.731c3.215,0 8.575,-0.643 10.718,1.93c1.072,3.644 0,16.186 0,21.439c0,23.904 0,47.808 0,71.712c1.072,0 1.072,0.108 2.144,-0.428c8.577,-7.075 16.08,-15.865 23.583,-23.583c4.289,-3.645 7.504,-8.576 12.864,-10.505c3.215,-1.394 8.574,-0.643 11.79,-0.643c10.72,0 21.439,0 31.087,0c0,3.966 -3.215,9.433 -5.359,12.113c-3.217,2.679 -8.577,1.5 -11.792,3.215c-4.288,1.716 -25.726,24.548 -24.655,26.37c1.072,5.038 9.647,11.363 13.936,15.65c7.503,7.718 13.934,15.436 21.437,23.261c3.218,2.68 5.362,6.325 8.577,8.04c4.287,2.251 9.647,2.573 15.006,3.43c2.146,0.429 6.433,0 8.577,1.822c1.072,0.965 0,3.967 -1.072,4.931c-1.072,2.787 -5.359,10.934 -8.577,12.113c-4.287,1.715 -10.718,0.643 -16.078,0.643c-6.433,0 -11.792,0 -18.223,0c-3.216,0 -8.575,0.429 -11.792,-0.428c-7.503,-1.93 -13.934,-8.79 -19.294,-14.579c-5.361,-5.895 -11.792,-11.791 -18.223,-17.687c-1.072,-1.715 -11.792,-12.113 -11.792,-13.077c-1.072,0 -1.072,0.536 -2.144,0.536c0,17.044 -4.287,28.728 16.08,28.728c0,3.644 -3.216,13.613 -6.431,15.435c-3.216,2.144 -9.649,1.072 -15.008,1.072c-17.151,0 -35.373,0.108 -53.596,0.108c0,-0.429 0,-0.858 0,-1.394c2.143,-4.502 2.143,-9.111 5.359,-12.863c3.216,-3.323 8.575,-3.109 9.647,-7.933c1.072,-3.43 1.072,-7.932 1.072,-11.791l0,-78.466c0,-9.004 1.071,-19.294 0,-27.763c-2.144,-7.932 -15.006,-4.073 -15.006,-6.753c-1.072,-2.573 0,-5.681 0,-7.932c1.071,-2.359 1.071,-4.717 3.215,-6.646c2.144,-3.109 42.878,-9.541 43.95,-10.077" style="fill:#3a3a3a;fill-rule:nonzero;"/><path id="path696" d="M453.273,38.125c7.505,-2.358 12.864,0 18.223,3.001c11.792,6.647 12.864,24.869 3.216,33.552c-10.719,9.112 -26.798,9.433 -41.806,9.004c-3.216,-0.107 -6.431,0.215 -8.575,-1.715c-2.144,-10.29 12.864,-31.086 21.439,-38.697c2.144,-1.715 5.359,-4.18 7.503,-5.145" style="fill:#3a3a3a;fill-rule:nonzero;"/><path id="path706" d="M472.568,90.007c2.144,0.214 3.216,0.429 4.288,0.643c3.217,1.501 2.143,21.653 2.143,26.584c0,16.401 0,32.801 0,49.202c0,5.36 -1.072,13.721 1.074,18.223c1.072,3.966 5.359,5.038 9.647,6.86c2.143,1.394 1.071,4.181 0,6.217l0,2.037c-2.144,2.787 -3.216,5.681 -4.288,8.576c-19.295,0 -38.59,0 -57.885,0c-1.072,0 -6.431,-0.751 -7.503,-0.751c0,-0.107 2.143,-10.183 5.359,-13.292c3.216,-3.859 6.431,-4.073 8.577,-9.433c1.071,-4.395 1.071,-9.969 1.071,-15.114c0,-10.076 0,-20.474 -1.071,-29.907c0,-5.253 2.143,-13.185 0,-17.58c-2.146,-2.894 -10.721,-5.038 -13.936,-5.038c-1.072,0 -1.072,-0.75 -1.072,-1.286c2.144,-5.789 1.072,-14.043 9.647,-14.043c2.143,-0.214 3.215,-0.428 5.361,-0.643c3.215,-0.858 7.503,-1.822 10.718,-2.68c9.647,-2.036 20.367,-4.502 27.87,-8.575" style="fill:#3a3a3a;fill-rule:nonzero;"/><path id="path710" d="M546.532,90.65c6.432,2.037 3.215,13.935 4.289,19.831c0,0.75 0,1.393 1.072,1.393c4.287,-0.536 9.646,-4.073 13.934,-6.324c10.72,-5.36 27.87,-12.863 36.446,-13.185c3.216,-0.214 7.503,0.214 10.719,0.429c8.576,0.536 15.008,8.254 18.223,15.972c1.072,5.574 1.072,13.185 1.072,19.723c0,16.187 0,32.373 0,48.559c0,5.36 2.144,10.184 6.431,13.185c2.144,0.965 3.216,1.822 5.361,2.68c1.072,0.75 0,2.358 0,3.323c-1.073,3.216 -2.145,7.932 -5.361,10.183c-4.287,3.323 -17.15,1.822 -23.582,1.822c-8.575,0 -16.078,-0.214 -20.367,-5.574c-13.935,-14.364 8.576,-82.753 -20.366,-80.824c-4.289,0.215 -7.504,1.93 -10.72,3.859c-16.08,9.005 -12.862,22.725 -12.862,40.734c0,7.182 -1.074,16.722 3.215,21.76c3.216,4.074 9.647,1.179 12.863,4.181c1.071,1.393 -3.216,8.897 -4.288,10.398c0,1.607 -1.072,3.859 -3.215,4.716c-4.288,2.037 -11.793,0.75 -17.152,0.75c-15.006,0 -31.085,0.108 -47.165,0.108c1.072,-5.253 2.144,-11.899 5.359,-15.436c3.218,-2.894 6.433,-3.859 7.505,-7.825c1.072,-5.575 0,-13.828 0,-19.938c0,-12.649 0,-25.298 0,-37.947c0,-1.822 -1.072,-3.537 -1.072,-4.931c-3.215,-3.966 -8.577,-3.752 -12.864,-3.752c1.072,-4.609 2.144,-9.218 3.216,-13.935c4.287,-0.965 8.576,-2.037 12.864,-3.001c11.79,-3.538 24.654,-5.36 36.445,-10.934" style="fill:#3a3a3a;fill-rule:nonzero;"/><path id="path714" d="M292.482,115.948c5.361,0 -8.575,25.512 -12.862,27.12c-4.287,1.929 -15.115,0.75 -20.795,0.75c-9.219,0 -18.544,0 -27.872,0c-0.965,0 -2.465,0.322 -2.679,-0.643c-0.214,0 11.256,-25.512 14.15,-26.691c3.537,-1.608 37.196,-0.536 50.058,-0.536" style="fill:#3a3a3a;fill-rule:nonzero;"/><path id="path718" d="M196.008,63.744c-6.966,-9.218 -14.148,-21.224 -25.082,-25.941c-4.395,-2.036 -9.756,-1.5 -15.115,-1.822c-14.15,-0.857 -107.516,0 -113.733,-0.536c-2.357,3.002 -7.289,11.47 -6.431,15.758c1.072,5.681 15.436,1.179 18.331,7.289c1.713,3.752 0.749,10.29 0.749,14.9l0,85.004c-0.107,7.182 1.071,15.651 -0.963,21.868c-1.93,5.467 -7.184,4.716 -11.149,7.503c-3.001,2.037 -8.576,15.115 -6.861,18.652c1.393,2.787 28.942,1.93 34.301,1.93c18.868,0 37.626,0 56.493,0c17.687,0 37.947,2.572 50.916,-6.432c3.752,-2.573 6.003,-6.324 8.576,-9.969c4.823,-7.182 9.754,-14.257 14.578,-21.332c6.111,-9.111 13.828,-18.222 18.545,-28.084c3.001,-6.432 4.394,-13.936 4.394,-21.975c0,-25.405 -13.934,-38.697 -27.549,-56.813ZM135.444,72.427c6.217,8.468 12.434,16.829 18.651,25.298c4.074,5.681 8.147,11.255 12.113,16.936c1.395,2.68 1.716,6.432 1.286,9.862c-1.179,8.897 -8.896,15.865 -14.041,22.832c-5.038,6.539 -10.076,13.078 -15.008,19.617c-4.715,6.217 -9.539,12.327 -14.256,18.437c-1.714,1.501 -3.86,1.715 -5.574,3.002c-3.966,0 -9.325,0.75 -11.148,-2.787c-2.037,-3.859 -0.858,-22.082 -0.858,-27.871c0,-31.408 0.107,-62.923 0.107,-94.33c0.107,-2.68 0.321,-4.717 2.574,-6.003c0,-0.215 0,-0.429 0,-0.643c5.145,0 10.932,-0.644 14.899,1.822" style="fill:#3a3a3a;fill-rule:nonzero;"/></g></svg>